<?xml version="1.0" encoding="utf-8"?>
<!-- Generator: Adobe Illustrator 27.5.0, SVG Export Plug-In . SVG Version: 6.00 Build 0)  -->
<svg version="1.1" id="Calque_1" xmlns="http://www.w3.org/2000/svg" xmlns:xlink="http://www.w3.org/1999/xlink" x="0px" y="0px"
	 viewBox="0 0 17.1 17.1" style="enable-background:new 0 0 17.1 17.1;" xml:space="preserve">
<style type="text/css">
	.st0{fill:#FFFFFF;}
</style>
<path d="M2,0h13c1.1,0,2,0.9,2,2v13c0,1.1-0.9,2-2,2H2c-1.1,0-2-0.9-2-2V2C0,0.9,0.9,0,2,0z"/>
<path class="st0" d="M14.3,7.8L13,6.6c-0.1-0.1-0.4-0.2-0.6-0.1c-0.2,0.1-0.3,0.3-0.3,0.5v0.8H9.4V4.9h0.8c0.2,0,0.4-0.1,0.5-0.3
	c0.1-0.2,0-0.4-0.1-0.6L9.2,2.8C9,2.6,8.7,2.6,8.5,2.8L7.2,4.1C7.1,4.2,7,4.4,7.1,4.6c0.1,0.2,0.3,0.3,0.5,0.3h0.8v2.8H5.6V6.9
	c0-0.2-0.1-0.4-0.3-0.5c-0.2-0.1-0.4,0-0.6,0.1L3.4,7.8C3.2,8,3.2,8.4,3.4,8.6l1.3,1.3C4.8,9.9,4.9,10,5.1,10c0.1,0,0.1,0,0.2,0
	c0.2-0.1,0.3-0.3,0.3-0.5V8.7h2.8v2.8H7.6c-0.2,0-0.4,0.1-0.5,0.3s0,0.4,0.1,0.6l1.3,1.3c0.1,0.1,0.2,0.1,0.4,0.1
	c0.1,0,0.3,0,0.4-0.1l1.3-1.3c0.1-0.1,0.2-0.4,0.1-0.6c-0.1-0.2-0.3-0.3-0.5-0.3H9.4V8.7h2.8v0.8c0,0.2,0.1,0.4,0.3,0.5
	c0.1,0,0.1,0,0.2,0c0.1,0,0.3-0.1,0.4-0.1l1.3-1.3C14.5,8.4,14.5,8,14.3,7.8z"/>
</svg>
