<svg width="15" height="15" viewBox="0 0 19 19" fill="none" xmlns="http://www.w3.org/2000/svg">
<path d="M8.90824 5.6194L7.06767 7.45996C6.38957 8.13807 5.70759 8.81617 5.03336 9.50203C4.87449 9.66477 4.75436 9.88177 4.70787 10.0949C4.46375 11.2147 4.22738 12.3346 3.99101 13.4544L3.85927 14.0744C3.79727 14.3766 3.87864 14.6789 4.08401 14.8842C4.24288 15.0431 4.46375 15.1322 4.69624 15.1322C4.76211 15.1322 4.82799 15.1245 4.89386 15.1129L5.57584 14.9695C6.66081 14.7409 7.74965 14.5084 8.83462 14.2836C9.08648 14.2294 9.2996 14.117 9.48172 13.9349C12.5274 10.8854 15.573 7.8397 18.6187 4.79792C18.8434 4.57318 18.9674 4.30581 18.9984 3.97645C19.0023 3.9222 18.9984 3.86795 18.9868 3.81758C18.9674 3.74008 18.9519 3.65871 18.9326 3.58121C18.8899 3.38359 18.8434 3.15885 18.7504 2.94185C18.1808 1.63989 17.2354 0.709921 15.9412 0.186812C15.6815 0.0821901 15.4064 0.0473162 15.1662 0.0163172L15.1003 0.00856739C14.7516 -0.0340563 14.4338 0.0821901 14.1587 0.361182C12.415 2.11263 10.6597 3.86795 8.90824 5.6194ZM14.9724 0.942414C14.9802 0.942414 14.9841 0.942414 14.9918 0.942414L15.0577 0.950164C15.2592 0.973413 15.4452 0.996662 15.5924 1.05866C16.6464 1.4849 17.4214 2.24437 17.8902 3.31384C17.9445 3.43784 17.9793 3.59671 18.0142 3.76333C18.0258 3.82533 18.0413 3.88732 18.053 3.94932C18.0375 4.01907 18.0103 4.06557 17.9561 4.11594C14.9066 7.15772 11.8609 10.2073 8.81524 13.2529C8.76487 13.3033 8.71837 13.3265 8.64862 13.342C7.55978 13.5707 6.47481 13.7993 5.38597 14.0279L4.81249 14.148L4.92098 13.6404C5.15735 12.5244 5.39372 11.4046 5.63396 10.2886C5.64171 10.2538 5.67271 10.1995 5.70759 10.1608C6.38182 9.47878 7.05605 8.80067 7.73415 8.12644L9.57472 6.28588C11.33 4.53055 13.0854 2.77523 14.8368 1.01604C14.9104 0.954039 14.9453 0.942414 14.9724 0.942414Z" fill="white"/>
<path d="M1.50733 4.22446H8.27287C8.53637 4.22446 8.74949 4.01134 8.74949 3.74785C8.74949 3.48436 8.53637 3.27124 8.27287 3.27124H1.50733C0.67423 3.27124 0 3.94934 0 4.77857V17.4649C0 18.298 0.678105 18.9723 1.50733 18.9723H14.1898C15.0229 18.9723 15.6972 18.2942 15.6972 17.4649V10.9745C15.6972 10.711 15.484 10.4979 15.2205 10.4979C14.957 10.4979 14.7439 10.711 14.7439 10.9745V17.4649C14.7439 17.7711 14.4921 18.0229 14.1859 18.0229H1.50733C1.20121 18.0229 0.949346 17.7711 0.949346 17.4649V4.78244C0.949346 4.47633 1.20121 4.22446 1.50733 4.22446Z" fill="white"/>
</svg>
