<?xml version="1.0" encoding="UTF-8"?><svg id="Calque_1" xmlns="http://www.w3.org/2000/svg" viewBox="0 0 58 46"><defs><style>.cls-1{fill:#b9c5cc;}</style></defs><path id="Vector" class="cls-1" d="m57,0H1C.45,0,0,.45,0,1v44c0,.55.45,1,1,1h56c.55,0,1-.45,1-1V1c0-.55-.45-1-1-1Zm-1,44H2V2h54v42Z"/><path id="Vector-2" class="cls-1" d="m7,38.15c.23,0,.47-.08.66-.25l16.31-14.36,10.3,10.3c.39.39,1.02.39,1.41,0s.39-1.02,0-1.41l-4.81-4.81,9.18-10.05,11.26,10.32c.41.37,1.04.35,1.41-.06.37-.41.35-1.04-.06-1.41l-12-11c-.2-.18-.46-.27-.72-.26-.27.01-.52.13-.69.33l-9.79,10.73-4.74-4.74c-.37-.37-.97-.39-1.37-.04l-17.02,14.98c-.42.36-.45,1-.09,1.41.2.23.47.34.75.34Z"/><path id="Vector-3" class="cls-1" d="m13.5,20.21c3.07,0,5.57-2.5,5.57-5.57s-2.5-5.57-5.57-5.57-5.57,2.5-5.57,5.57,2.5,5.57,5.57,5.57Zm0-9.14c1.97,0,3.57,1.6,3.57,3.57s-1.6,3.57-3.57,3.57-3.57-1.6-3.57-3.57,1.6-3.57,3.57-3.57Z"/></svg>